<?xml version="1.0" encoding="utf-8"?>
<svg viewBox="-28.381 3.548 792.094 579.233" xmlns="http://www.w3.org/2000/svg">
  <circle cx="432.094" cy="79.744" r="26.701" style="fill: rgb(212, 234, 233);"/>
  <path d="M 639.22 502.715 C 678.908 472.486 697.864 421.689 685.997 373.232 C 685.702 372.028 685.391 370.827 685.063 369.628 C 677.196 340.865 657.731 313.528 629.363 304.337 C 605.543 296.62 579.543 302.554 554.694 299.486 C 505.912 293.462 468.093 253.992 441.482 212.666 C 414.872 171.341 394.421 125.083 359.061 90.942 C 300.776 34.667 205.699 22.551 133.434 59.182 C 61.17 95.813 15.138 177.082 17.101 258.077 C 19.064 339.072 67.147 416.509 136.976 457.594 C 162.628 472.687 192.297 483.379 221.824 479.638 C 247.444 476.391 270.723 462.625 296.223 458.538 C 336.314 452.113 376.149 470.239 410.825 491.362 C 445.501 512.485 478.995 537.522 518.4 547.314 C 556.661 556.823 604.063 529.493 639.22 502.715 Z" style="fill: rgb(212, 234, 233);" transform="matrix(-1, 0, 0, -1, 706.539866, 587.531564)"/>
  <path d="M 582.199 60.883 C 581.329 60.303 580.449 59.753 579.579 59.193 C 554.43 43.108 527.474 30.042 499.269 20.263 L 492.729 110.483 L 451.269 110.483 L 451.269 7.093 C 448.659 6.553 446.029 6.043 443.399 5.563 L 443.399 110.483 L 394.129 110.483 C 337.647 110.483 291.859 64.695 291.859 8.213 L 291.859 8.213 C 289.219 8.783 286.599 9.393 283.979 10.043 L 283.979 110.483 L 243.849 110.483 L 237.619 24.453 C 208.633 35.569 181.116 50.187 155.679 67.983 C 155.239 68.283 154.799 68.593 154.369 68.893 C 152.159 70.443 149.979 72.023 147.809 73.623 L 147.809 417.813 L 266.079 417.813 L 263.989 388.863 L 252.489 229.913 L 484.079 229.913 L 472.579 388.863 L 470.489 417.813 L 587.449 417.813 L 587.449 64.363 C 585.709 63.183 583.959 62.023 582.199 60.883 Z M 283.979 203.663 L 250.589 203.663 L 244.419 118.363 L 283.979 118.363 L 283.979 203.663 Z M 443.399 203.663 L 387.319 203.663 L 387.319 201.973 C 387.319 198.556 384.546 195.787 381.129 195.793 L 356.749 195.793 C 353.335 195.791 350.567 198.559 350.569 201.973 L 350.569 203.663 L 291.859 203.663 L 291.859 118.363 L 443.399 118.363 L 443.399 203.663 Z M 451.269 203.663 L 451.269 118.363 L 492.159 118.363 L 485.989 203.663 L 451.269 203.663 Z" style="fill: rgb(14, 39, 60);"/>
  <path d="M -26.227 439.853 C -17.54 450.147 -8.144 459.821 1.893 468.803 L 732.473 469.803 C 742.509 460.821 751.906 451.147 760.593 440.853 L -26.227 439.853 Z" style="fill: rgb(14, 39, 60);"/>
  <path d="M 469.203 347.154 L 469.203 432.858 C 469.205 435.132 471.048 436.975 473.322 436.977 L 600.326 436.977 C 602.6 436.975 604.444 435.132 604.445 432.858 L 604.445 347.154 C 604.44 344.882 602.598 343.042 600.326 343.039 L 473.322 343.039 C 471.05 343.042 469.208 344.882 469.203 347.154 Z" fill="#3f3d56"/>
  <path d="M 472.182 348.22 L 472.182 431.801 C 472.184 433.016 473.169 434 474.384 434.002 L 599.269 434.002 C 600.484 434 601.468 433.016 601.47 431.801 L 601.47 348.22 C 601.47 347.004 600.486 346.017 599.269 346.014 L 474.384 346.014 C 473.167 346.017 472.182 347.004 472.182 348.22 Z" style="fill: rgb(234, 180, 30);"/>
  <path d="M 466.547 449.573 C 467.018 450.164 467.734 450.506 468.49 450.502 L 604.482 450.502 C 606.069 450.5 607.254 449.04 606.928 447.487 L 604.817 437.459 C 604.639 436.629 604.053 435.944 603.259 435.642 C 602.976 435.531 602.675 435.474 602.371 435.474 L 470.593 435.474 C 470.289 435.474 469.988 435.531 469.705 435.642 C 468.911 435.944 468.324 436.629 468.147 437.459 L 466.036 447.487 C 465.883 448.223 466.071 448.99 466.547 449.573 Z" fill="#2f2e41"/>
  <rect x="-601.405" y="-439.793" width="4.188" height="2.513" rx="0.488" transform="matrix(-1, 0, 0, -1, 0, 0)" fill="#3f3d56"/>
  <rect x="-593.028" y="-439.793" width="4.188" height="2.513" rx="0.488" transform="matrix(-1, 0, 0, -1, 0, 0)" fill="#3f3d56"/>
  <rect x="-584.651" y="-439.793" width="4.188" height="2.513" rx="0.488" transform="matrix(-1, 0, 0, -1, 0, 0)" fill="#3f3d56"/>
  <rect x="-576.274" y="-439.793" width="4.188" height="2.513" rx="0.488" transform="matrix(-1, 0, 0, -1, 0, 0)" fill="#3f3d56"/>
  <rect x="-567.897" y="-439.793" width="4.188" height="2.513" rx="0.488" transform="matrix(-1, 0, 0, -1, 0, 0)" fill="#3f3d56"/>
  <rect x="-559.52" y="-439.793" width="4.188" height="2.513" rx="0.488" transform="matrix(-1, 0, 0, -1, 0, 0)" fill="#3f3d56"/>
  <rect x="-551.143" y="-439.793" width="4.188" height="2.513" rx="0.488" transform="matrix(-1, 0, 0, -1, 0, 0)" fill="#3f3d56"/>
  <rect x="-542.766" y="-439.793" width="4.188" height="2.513" rx="0.488" transform="matrix(-1, 0, 0, -1, 0, 0)" fill="#3f3d56"/>
  <rect x="-534.389" y="-439.793" width="4.188" height="2.513" rx="0.488" transform="matrix(-1, 0, 0, -1, 0, 0)" fill="#3f3d56"/>
  <rect x="-526.012" y="-439.793" width="4.188" height="2.513" rx="0.488" transform="matrix(-1, 0, 0, -1, 0, 0)" fill="#3f3d56"/>
  <rect x="-517.635" y="-439.793" width="4.188" height="2.513" rx="0.488" transform="matrix(-1, 0, 0, -1, 0, 0)" fill="#3f3d56"/>
  <rect x="-509.258" y="-439.793" width="4.188" height="2.513" rx="0.488" transform="matrix(-1, 0, 0, -1, 0, 0)" fill="#3f3d56"/>
  <rect x="-500.881" y="-439.793" width="4.188" height="2.513" rx="0.488" transform="matrix(-1, 0, 0, -1, 0, 0)" fill="#3f3d56"/>
  <rect x="-492.504" y="-439.793" width="4.188" height="2.513" rx="0.488" transform="matrix(-1, 0, 0, -1, 0, 0)" fill="#3f3d56"/>
  <rect x="-484.127" y="-439.793" width="4.188" height="2.513" rx="0.488" transform="matrix(-1, 0, 0, -1, 0, 0)" fill="#3f3d56"/>
  <rect x="-475.75" y="-439.793" width="4.188" height="2.513" rx="0.488" transform="matrix(-1, 0, 0, -1, 0, 0)" fill="#3f3d56"/>
  <rect x="-601.504" y="-443.982" width="4.188" height="2.513" rx="0.488" transform="matrix(-1, 0, 0, -1, 0, 0)" fill="#3f3d56"/>
  <rect x="-593.127" y="-443.982" width="4.188" height="2.513" rx="0.488" transform="matrix(-1, 0, 0, -1, 0, 0)" fill="#3f3d56"/>
  <rect x="-584.75" y="-443.982" width="4.188" height="2.513" rx="0.488" transform="matrix(-1, 0, 0, -1, 0, 0)" fill="#3f3d56"/>
  <rect x="-576.373" y="-443.982" width="4.188" height="2.513" rx="0.488" transform="matrix(-1, 0, 0, -1, 0, 0)" fill="#3f3d56"/>
  <rect x="-567.996" y="-443.982" width="4.188" height="2.513" rx="0.488" transform="matrix(-1, 0, 0, -1, 0, 0)" fill="#3f3d56"/>
  <rect x="-559.619" y="-443.982" width="4.188" height="2.513" rx="0.488" transform="matrix(-1, 0, 0, -1, 0, 0)" fill="#3f3d56"/>
  <rect x="-551.242" y="-443.982" width="4.188" height="2.513" rx="0.488" transform="matrix(-1, 0, 0, -1, 0, 0)" fill="#3f3d56"/>
  <rect x="-542.865" y="-443.982" width="4.188" height="2.513" rx="0.488" transform="matrix(-1, 0, 0, -1, 0, 0)" fill="#3f3d56"/>
  <rect x="-534.488" y="-443.982" width="4.188" height="2.513" rx="0.488" transform="matrix(-1, 0, 0, -1, 0, 0)" fill="#3f3d56"/>
  <rect x="-526.111" y="-443.982" width="4.188" height="2.513" rx="0.488" transform="matrix(-1, 0, 0, -1, 0, 0)" fill="#3f3d56"/>
  <rect x="-517.734" y="-443.982" width="4.188" height="2.513" rx="0.488" transform="matrix(-1, 0, 0, -1, 0, 0)" fill="#3f3d56"/>
  <rect x="-509.357" y="-443.982" width="4.188" height="2.513" rx="0.488" transform="matrix(-1, 0, 0, -1, 0, 0)" fill="#3f3d56"/>
  <rect x="-500.98" y="-443.982" width="4.188" height="2.513" rx="0.488" transform="matrix(-1, 0, 0, -1, 0, 0)" fill="#3f3d56"/>
  <rect x="-492.603" y="-443.982" width="4.188" height="2.513" rx="0.488" transform="matrix(-1, 0, 0, -1, 0, 0)" fill="#3f3d56"/>
  <rect x="-484.226" y="-443.982" width="4.188" height="2.513" rx="0.488" transform="matrix(-1, 0, 0, -1, 0, 0)" fill="#3f3d56"/>
  <rect x="-475.849" y="-443.982" width="4.188" height="2.513" rx="0.488" transform="matrix(-1, 0, 0, -1, 0, 0)" fill="#3f3d56"/>
  <rect x="-561.295" y="-449.008" width="33.508" height="2.513" rx="0.488" transform="matrix(-1, 0, 0, -1, 0, 0)" fill="#3f3d56"/>
  <rect x="489.404" y="364.3" width="5.966" height="3.122" rx="1.561" fill="#fff"/>
  <rect x="521.927" y="364.3" width="5.966" height="3.122" rx="1.561" fill="#fff"/>
  <rect x="531.142" y="364.3" width="5.966" height="3.122" rx="1.561" fill="#fff"/>
  <rect x="498.25" y="364.039" width="20.796" height="3.122" rx="1.561" fill="#fff"/>
  <rect x="541.614" y="364.039" width="20.796" height="3.122" rx="1.561" fill="#fff"/>
  <rect x="498.077" y="371.346" width="5.966" height="3.122" rx="1.561" fill="#fff"/>
  <rect x="530.6" y="371.346" width="5.966" height="3.122" rx="1.561" fill="#fff"/>
  <rect x="539.815" y="371.346" width="5.966" height="3.122" rx="1.561" fill="#fff"/>
  <rect x="506.923" y="371.086" width="20.796" height="3.122" rx="1.561" fill="#fff"/>
  <rect x="550.287" y="371.086" width="20.796" height="3.122" rx="1.561" fill="#fff"/>
  <rect x="506.749" y="378.393" width="5.966" height="3.122" rx="1.561" fill="#fff"/>
  <rect x="539.273" y="378.393" width="5.966" height="3.122" rx="1.561" fill="#fff"/>
  <rect x="548.487" y="378.393" width="5.966" height="3.122" rx="1.561" fill="#fff"/>
  <rect x="515.596" y="378.133" width="20.796" height="3.122" rx="1.561" fill="#fff"/>
  <rect x="558.96" y="378.133" width="20.796" height="3.122" rx="1.561" fill="#fff"/>
  <rect x="515.422" y="385.44" width="5.966" height="3.122" rx="1.561" fill="#fff"/>
  <rect x="547.945" y="385.44" width="5.966" height="3.122" rx="1.561" fill="#fff"/>
  <rect x="557.16" y="385.44" width="5.966" height="3.122" rx="1.561" fill="#fff"/>
  <rect x="524.269" y="385.179" width="20.796" height="3.122" rx="1.561" fill="#fff"/>
  <rect x="521.927" y="413.46" width="5.966" height="3.122" rx="1.561" fill="#fff"/>
  <rect x="531.142" y="413.46" width="5.966" height="3.122" rx="1.561" fill="#fff"/>
  <rect x="541.614" y="413.72" width="20.796" height="3.122" rx="1.561" fill="#fff"/>
  <rect x="489.404" y="413.46" width="5.966" height="3.122" rx="1.561" fill="#fff"/>
  <rect x="498.25" y="413.72" width="20.796" height="3.122" rx="1.561" fill="#fff"/>
  <rect x="498.077" y="406.414" width="5.966" height="3.122" rx="1.561" fill="#fff"/>
  <rect x="530.6" y="406.414" width="5.966" height="3.122" rx="1.561" fill="#fff"/>
  <rect x="539.815" y="406.414" width="5.966" height="3.122" rx="1.561" fill="#fff"/>
  <rect x="506.923" y="406.674" width="20.796" height="3.122" rx="1.561" fill="#fff"/>
  <rect x="506.749" y="399.367" width="5.966" height="3.122" rx="1.561" fill="#fff"/>
  <rect x="539.273" y="399.367" width="5.966" height="3.122" rx="1.561" fill="#fff"/>
  <rect x="548.487" y="399.367" width="5.966" height="3.122" rx="1.561" fill="#fff"/>
  <rect x="515.596" y="399.627" width="20.796" height="3.122" rx="1.561" fill="#fff"/>
  <rect x="515.422" y="392.32" width="5.966" height="3.122" rx="1.561" fill="#fff"/>
  <rect x="547.945" y="392.32" width="5.966" height="3.122" rx="1.561" fill="#fff"/>
  <rect x="557.16" y="392.32" width="5.966" height="3.122" rx="1.561" fill="#fff"/>
  <rect x="524.269" y="392.58" width="20.796" height="3.122" rx="1.561" fill="#fff"/>
  <path d="M 478.69 496.044 L 465.341 474.943 L 507.243 441.54 L 524.538 422.379 C 534.386 411.468 552.345 415.251 556.956 429.207 C 560.196 439.015 555.079 449.627 545.386 453.198 L 518.037 463.273 L 478.69 496.044 Z" fill="#ffb6b6"/>
  <path d="M 165.463 343.043 L 165.463 445.603 L 237.313 445.603 L 237.313 343.043 C 237.315 341.529 236.33 340.191 234.883 339.743 C 234.551 339.634 234.203 339.58 233.853 339.583 L 168.933 339.583 C 167.019 339.58 165.465 341.129 165.463 343.043 Z M 193.503 378.283 C 193.558 372.379 199.983 368.748 205.069 371.748 C 207.386 373.114 208.818 375.594 208.843 378.283 L 208.843 390.183 C 208.813 396.088 202.402 399.745 197.304 396.767 C 194.962 395.399 193.517 392.896 193.503 390.183 L 193.503 378.283 Z" style="fill: rgb(47, 46, 65);"/>
  <path d="M 165.243 442.324 L 165.243 452.214 C 165.246 453.28 166.107 454.145 167.173 454.154 L 235.603 454.154 C 236.67 454.148 237.533 453.281 237.533 452.214 L 237.533 442.324 L 165.243 442.324 Z" fill="#3f3d56"/>
  <path d="M 52.433 188.524 L 52.433 375.783 C 52.437 380.752 56.464 384.78 61.433 384.783 L 338.933 384.783 C 343.902 384.78 347.929 380.752 347.933 375.783 L 347.933 188.524 C 347.921 183.56 343.897 179.54 338.933 179.534 L 61.433 179.534 C 56.469 179.54 52.445 183.56 52.433 188.524 Z" fill="#3f3d56"/>
  <path d="M 58.943 190.853 L 58.943 373.473 C 58.947 376.128 61.098 378.279 63.753 378.283 L 336.623 378.283 C 339.277 378.279 341.428 376.128 341.433 373.473 L 341.433 190.853 C 341.433 188.195 339.281 186.039 336.623 186.033 L 63.753 186.033 C 61.095 186.039 58.943 188.195 58.943 190.853 Z" fill="#fff"/>
  <path d="M 109.583 453.483 C 110.145 454.189 111 454.598 111.903 454.593 L 274.243 454.593 C 276.138 454.591 277.551 452.848 277.163 450.993 L 274.643 439.023 C 274.431 438.032 273.73 437.215 272.783 436.853 C 272.445 436.721 272.086 436.653 271.723 436.654 L 114.413 436.654 C 114.05 436.653 113.69 436.721 113.353 436.853 C 112.405 437.215 111.705 438.032 111.493 439.023 L 108.973 450.993 C 108.791 451.873 109.015 452.787 109.583 453.483 Z" fill="#2f2e41"/>
  <path d="M 327.767 211.19 L 72.444 211.19 C 71.662 211.173 71.193 210.316 71.598 209.648 C 71.778 209.351 72.097 209.167 72.444 209.16 L 327.767 209.16 C 328.549 209.177 329.019 210.034 328.613 210.702 C 328.433 210.998 328.114 211.183 327.767 211.19 Z" fill="#3f3d56"/>
  <ellipse cx="89.824" cy="197.892" rx="5.95" ry="6.083" fill="#3f3d56"/>
  <ellipse cx="110.38" cy="197.892" rx="5.95" ry="6.083" fill="#3f3d56"/>
  <ellipse cx="130.936" cy="197.892" rx="5.95" ry="6.083" fill="#3f3d56"/>
  <path d="M 315.389 193.314 L 300.789 193.314 C 299.939 193.333 299.428 194.267 299.871 194.993 C 300.067 195.315 300.413 195.515 300.789 195.524 L 315.389 195.524 C 316.24 195.512 316.758 194.583 316.323 193.853 C 316.126 193.523 315.773 193.319 315.389 193.314 Z" fill="#3f3d56"/>
  <path d="M 315.389 197.464 L 300.789 197.464 C 299.939 197.482 299.427 198.415 299.869 199.142 C 300.065 199.465 300.412 199.665 300.789 199.674 L 315.389 199.674 C 316.24 199.663 316.76 198.736 316.326 198.005 C 316.13 197.673 315.774 197.468 315.389 197.464 Z" fill="#3f3d56"/>
  <path d="M 315.389 201.613 L 300.789 201.613 C 299.939 201.633 299.428 202.567 299.871 203.293 C 300.067 203.615 300.413 203.815 300.789 203.823 L 315.389 203.823 C 316.24 203.811 316.758 202.883 316.323 202.152 C 316.126 201.823 315.773 201.619 315.389 201.613 Z" fill="#3f3d56"/>
  <path d="M 667.369 446.664 C 668.272 449.296 670.77 451.045 673.552 450.995 L 700.043 450.313 C 702.849 450.258 705.284 448.363 706.024 445.656 L 709.773 405.569 C 711.103 406.171 712.551 406.469 714.011 406.44 C 721.446 406.253 725.891 398.088 722.012 391.742 C 720.211 388.797 716.977 387.037 713.526 387.123 C 712.943 387.121 712.361 387.182 711.79 387.304 C 710.535 385.946 708.765 385.182 706.916 385.201 L 666.165 386.253 C 665.827 386.265 665.491 386.307 665.16 386.378 C 661.366 387.085 659.069 390.98 660.287 394.642 L 667.369 446.664 Z M 710.542 402.847 L 713.21 393.294 C 713.513 392.191 713.52 391.027 713.23 389.92 C 713.359 389.919 713.474 389.858 713.603 389.858 C 718.922 389.748 722.365 395.437 719.801 400.098 C 718.617 402.249 716.381 403.611 713.927 403.675 C 712.744 403.712 711.574 403.426 710.542 402.847 L 710.542 402.847 Z" style="fill: rgb(14, 39, 60);"/>
  <path d="M 665.16 386.378 C 666.028 391.342 675.789 394.832 687.526 394.225 C 698.319 393.728 707.144 389.938 708.76 385.447 C 708.162 385.27 707.54 385.187 706.916 385.201 L 666.165 386.253 C 665.827 386.265 665.491 386.307 665.16 386.378 Z" fill="#3f3d56"/>
  <path d="M 689.677 424.636 C 689.731 424.622 689.782 424.6 689.828 424.569 L 695.581 420.804 C 695.883 420.607 695.883 420.165 695.582 419.967 L 689.602 416.051 C 689.281 415.838 688.851 416.053 688.827 416.437 C 688.816 416.617 688.903 416.789 689.054 416.887 L 694.395 420.385 L 689.281 423.733 C 688.959 423.943 688.985 424.424 689.329 424.597 C 689.436 424.652 689.56 424.665 689.677 424.636 L 689.677 424.636 Z" style="fill: rgb(234, 180, 30);"/>
  <path d="M 680.59 425.055 C 680.964 424.96 681.094 424.497 680.826 424.221 C 680.794 424.188 680.757 424.159 680.716 424.136 L 675.413 421.096 L 680.539 417.289 C 680.848 417.059 680.792 416.582 680.439 416.429 C 680.275 416.358 680.086 416.38 679.943 416.487 L 674.204 420.749 C 673.915 420.964 673.941 421.405 674.254 421.584 L 680.219 425.004 C 680.331 425.068 680.465 425.087 680.59 425.055 Z" style="fill: rgb(234, 180, 30);"/>
  <path d="M 689.105 427.936 C 689.153 427.924 689.2 427.904 689.242 427.878 C 689.478 427.734 689.553 427.427 689.409 427.191 L 681.254 413.782 C 681.053 413.454 680.572 413.466 680.388 413.804 C 680.303 413.961 680.307 414.151 680.4 414.303 L 688.555 427.711 C 688.669 427.899 688.892 427.99 689.105 427.936 Z" style="fill: rgb(234, 180, 30);"/>
  <rect x="183.157" y="266.39" width="50.719" height="10.846" rx="3.264" style="fill: rgb(234, 180, 30);"/>
  <rect x="157.399" y="288.081" width="102.236" height="10.846" rx="3.264" fill="#e6e6e6"/>
  <rect x="157.399" y="309.773" width="102.236" height="10.846" rx="3.264" fill="#e6e6e6"/>
  <path d="M 264.484 382.409 L 264.701 383.093 L 264.712 383.116 L 271.237 402.954 L 278.744 425.815 L 292.866 468.776 L 293.003 475.45 L 293.003 475.472 L 294.053 529.157 L 291.144 536.435 L 294.418 548.367 C 294.418 548.367 292.912 530.33 284.835 540.689 C 280.261 546.575 274.911 552.598 270.519 558.245 C 276.918 560.834 283.421 563.177 290.026 565.272 C 291.452 565.728 292.889 566.162 294.327 566.595 C 294.634 566.687 294.942 566.778 295.251 566.869 C 317.145 573.344 339.78 576.982 362.601 577.695 C 363.788 577.729 364.951 577.752 366.081 577.775 C 366.48 577.786 366.868 577.798 367.256 577.798 C 368.533 577.809 369.8 577.82 371.077 577.82 C 373.655 577.82 376.222 577.782 378.777 577.706 C 397.691 577.173 416.494 574.63 434.869 570.12 C 434.743 562.534 434.401 553.67 433.911 544.202 C 433.683 539.559 428.561 534.528 428.252 529.669 C 428.036 526.018 432.633 522.585 432.393 518.877 C 430.842 496.05 428.903 504.813 427.465 488.648 C 427.317 487.063 427.18 485.545 427.055 484.097 C 426.131 473.716 425.492 467.225 425.492 467.225 L 431.629 428.541 L 441.269 367.807 L 440.527 366.586 L 439.694 366.175 L 388.85 341.01 L 386.09 333.937 C 384.444 329.769 380.43 327.019 375.948 326.99 L 342.455 326.853 C 338.929 326.837 335.611 328.524 333.546 331.382 L 324.477 343.942 L 264.484 382.409 Z" fill="#3f3d56"/>
  <path d="M 300.589 459.216 L 293.003 475.45 L 287.824 486.538 L 278.915 533.184 L 274.454 537.918 L 270.633 521.159 L 230.635 530.039 C 229.323 522.75 230.284 530.286 229.474 522.289 C 229.702 522.061 229.942 521.833 230.181 521.605 C 230.82 521.012 231.356 520.453 231.345 519.917 C 230.888 492.333 232.257 445.39 243.688 416.951 C 245.478 412.308 247.839 407.905 250.715 403.844 C 250.943 403.536 251.16 403.227 251.377 402.92 C 256.647 395.539 259.978 388.272 264.701 383.104 L 264.701 383.093 C 264.73 383.069 264.757 383.043 264.781 383.013 C 264.798 383.005 264.813 382.993 264.826 382.979 L 297.27 365.776 L 298.661 404.882 L 299.654 432.99 L 300.589 459.216 Z" fill="#3f3d56"/>
  <path d="M 417.574 463.827 L 427.05 484.102 L 430.358 491.163 L 439.264 537.805 L 443.71 542.527 L 447.541 525.772 L 449.34 525.403 L 481.799 518.68 L 491.259 548.727 C 495.655 541.402 494.292 531.996 487.998 526.221 C 487.352 525.637 486.814 525.067 486.829 524.529 C 487.368 492.086 485.383 432.845 467.462 408.463 C 461.77 400.725 458.355 393.018 453.386 387.634 C 453.371 387.619 453.371 387.604 453.355 387.604 L 441.264 367.805 L 440.526 366.59 L 439.695 366.175 L 417.574 463.827 Z" fill="#3f3d56"/>
  <circle id="a657ec4b-47ce-4d2a-9c58-81a811696ca9" data-name="Ellipse 5" cx="360.169" cy="272.763" r="44.558" fill="#ffb6b6"/>
  <path d="M 420.395 241.639 C 419.697 240.894 418.726 240.464 417.705 240.449 L 418.375 238.589 C 419.325 236.045 417.164 233.427 414.486 233.877 C 414.462 233.881 414.439 233.885 414.415 233.889 L 411.975 234.359 L 412.205 232.729 C 412.591 230.073 409.991 227.973 407.475 228.909 C 406.416 229.326 405.225 229.242 404.235 228.679 C 403.242 228.135 402.54 227.18 402.315 226.069 L 401.465 221.969 L 401.375 221.749 C 397.235 214.849 389.275 209.829 379.535 207.989 C 370.865 206.339 361.975 207.179 353.405 207.969 C 350.005 208.289 346.165 208.649 342.965 210.609 C 340.245 212.289 337.945 215.649 338.415 219.039 C 329.965 216.449 320.905 221.619 316.415 228.139 C 311.095 235.899 310.225 245.619 310.085 253.219 C 309.705 271.199 313.415 285.909 321.085 296.949 C 321.645 297.749 321.785 299.419 322.895 299.979 L 322.665 299.609 C 323.905 300.229 325.165 301.229 324.695 302.299 C 323.345 305.379 332.315 312.189 338.635 314.439 C 350.165 318.549 365.495 318.199 376.275 316.719 L 376.655 314.169 C 380.545 313.639 383.285 312.629 384.055 311.049 C 385.415 309.889 386.575 308.849 387.585 307.889 L 387.595 307.879 C 387.615 307.859 387.655 307.829 387.675 307.809 C 392.545 303.139 393.675 300.479 394.185 296.429 C 394.675 292.459 393.805 288.429 392.915 284.799 C 411.655 287.699 385.535 264.839 402.995 260.419 C 403.195 260.358 403.399 260.308 403.605 260.269 C 404.115 260.149 404.625 260.029 405.115 259.889 C 407.477 259.248 409.739 258.282 411.835 257.019 C 416.715 254.049 418.325 250.109 420.845 245.669 C 421.591 244.372 421.409 242.74 420.395 241.639 Z" fill="#2f2e41"/>
  <path d="M 517.765 466.999 C 517.755 468.749 517.735 471.199 517.655 474.229 C 517.645 474.649 517.635 475.079 517.625 475.519 C 517.495 481.089 517.365 485.759 517.155 490.949 C 517.145 491.309 517.135 491.659 517.115 492.019 C 516.835 499.259 516.395 507.689 515.635 521.039 C 514.225 545.699 511.765 524.429 509.295 533.079 C 509.175 533.509 509.045 534.019 508.925 534.619 C 508.551 536.796 507.92 538.921 507.045 540.949 C 505.735 541.729 504.385 542.479 503.055 543.229 C 499.265 545.339 495.415 547.369 491.535 549.299 C 489.355 550.379 487.165 551.439 484.965 552.459 C 484.615 552.619 484.275 552.779 483.935 552.929 C 472.669 558.14 461.059 562.571 449.185 566.189 C 446.865 566.889 444.555 567.569 442.215 568.199 C 439.775 568.879 437.335 569.519 434.865 570.119 C 416.49 574.63 397.688 577.175 378.775 577.709 C 376.225 577.789 373.655 577.819 371.075 577.819 C 369.795 577.819 368.535 577.809 367.255 577.799 C 366.865 577.799 366.475 577.789 366.085 577.779 C 364.955 577.749 363.785 577.729 362.605 577.699 C 339.784 576.988 317.149 573.348 295.255 566.869 L 294.325 566.599 C 292.885 566.159 291.455 565.729 290.025 565.269 C 283.425 563.179 276.922 560.839 270.515 558.249 C 265.625 556.279 260.792 554.166 256.015 551.909 C 255.972 551.898 255.931 551.877 255.895 551.849 C 254.895 551.389 253.885 550.909 252.885 550.419 C 252.755 550.349 252.615 550.279 252.475 550.209 C 248.745 548.389 245.055 546.483 241.405 544.489 C 238.335 537.439 234.015 536.089 231.335 529.889 C 230.555 528.047 229.991 526.121 229.655 524.149 C 229.655 524.129 229.645 524.109 229.645 524.079 C 229.925 527.799 228.455 517.479 229.635 524.039 C 229.625 523.919 229.615 523.789 229.605 523.639 C 229.575 523.279 229.535 522.839 229.475 522.289 C 226.045 488.799 226.265 450.499 224.775 418.939 C 224.675 416.899 224.572 414.946 224.465 413.079 C 224.435 412.459 224.395 411.849 224.355 411.249 C 224.425 411.069 224.505 410.879 224.595 410.699 C 224.614 410.648 224.638 410.597 224.665 410.549 C 224.695 410.487 224.728 410.427 224.765 410.369 C 224.785 410.339 224.815 410.299 224.835 410.269 C 224.85 410.235 224.866 410.202 224.885 410.169 C 224.975 410.029 225.075 409.879 225.185 409.739 C 225.235 409.679 225.275 409.629 225.325 409.579 C 225.36 409.528 225.4 409.481 225.445 409.439 C 225.476 409.391 225.513 409.348 225.555 409.309 C 225.595 409.269 225.635 409.219 225.685 409.169 C 225.706 409.138 225.734 409.111 225.765 409.089 C 225.844 408.999 225.931 408.915 226.025 408.839 C 226.382 408.511 226.763 408.21 227.165 407.939 C 227.305 407.849 227.455 407.759 227.595 407.659 C 228.603 407.057 229.664 406.548 230.765 406.139 C 231.145 405.999 231.525 405.869 231.935 405.729 C 232.085 405.689 232.225 405.639 232.375 405.589 C 232.595 405.519 232.815 405.449 233.045 405.399 C 234.185 405.059 235.415 404.769 236.745 404.499 C 236.905 404.469 237.075 404.439 237.245 404.399 C 237.485 404.349 237.735 404.309 237.985 404.269 C 238.325 404.209 238.675 404.149 239.025 404.089 C 241.995 403.619 245.365 403.269 249.085 403.039 C 249.435 403.019 249.785 402.999 250.135 402.979 C 250.545 402.959 250.955 402.939 251.375 402.919 C 251.725 402.899 252.085 402.889 252.445 402.879 C 252.795 402.859 253.155 402.849 253.525 402.839 C 254.535 402.809 255.575 402.779 256.635 402.759 C 259.655 402.699 262.835 402.719 266.175 402.789 C 267.725 402.829 269.305 402.869 270.925 402.939 C 271.035 402.939 271.135 402.949 271.235 402.949 C 272.645 402.999 274.065 403.059 275.525 403.139 C 276.545 403.189 277.575 403.239 278.605 403.299 C 279.575 403.359 280.555 403.419 281.545 403.489 C 282.315 403.529 283.085 403.589 283.865 403.639 C 284.525 403.689 285.185 403.739 285.845 403.779 L 286.745 403.839 C 287.235 403.879 287.725 403.909 288.225 403.959 C 289.325 404.049 290.425 404.139 291.545 404.229 C 292.655 404.329 293.785 404.429 294.915 404.529 C 296.045 404.629 297.185 404.739 298.325 404.849 C 298.445 404.859 298.555 404.869 298.665 404.879 C 299.705 404.99 300.745 405.089 301.795 405.199 C 302.035 405.219 302.285 405.239 302.525 405.269 C 303.526 405.37 304.547 405.488 305.557 405.595 C 305.867 405.629 306.176 405.661 306.487 405.695 C 307.278 405.781 308.058 405.856 308.855 405.949 C 309.905 406.069 310.975 406.179 312.015 406.319 C 312.825 406.409 313.635 406.499 314.445 406.599 C 315.715 406.749 317.005 406.909 318.295 407.079 C 318.785 407.139 319.275 407.199 319.765 407.269 C 323.445 407.729 327.165 408.239 330.945 408.769 C 336.675 409.579 342.495 410.459 348.355 411.409 C 354.225 412.359 360.128 413.363 366.065 414.419 C 367.565 414.689 369.065 414.959 370.575 415.239 C 371.255 415.369 371.935 415.499 372.615 415.629 C 373.775 415.839 374.935 416.059 376.095 416.279 C 377.255 416.499 378.415 416.719 379.575 416.949 C 380.955 417.219 382.345 417.489 383.725 417.759 C 392.815 419.559 401.855 421.479 410.675 423.489 C 412.125 423.819 413.575 424.159 415.015 424.489 C 417.895 425.159 420.748 425.839 423.575 426.529 C 424.355 426.709 425.125 426.899 425.895 427.089 C 427.815 427.569 429.735 428.049 431.625 428.539 L 431.955 428.629 C 433.345 428.969 434.705 429.319 436.065 429.679 C 439.275 430.519 442.432 431.369 445.535 432.229 C 447.595 432.799 449.632 433.376 451.645 433.959 C 454.655 434.829 457.605 435.709 460.475 436.599 C 461.185 436.819 461.895 437.039 462.595 437.249 C 464.695 437.899 466.765 438.559 468.775 439.219 C 470.375 439.739 471.935 440.269 473.475 440.799 C 475.015 441.329 476.525 441.859 478.005 442.389 C 478.955 442.729 479.895 443.089 480.835 443.429 C 482.185 443.929 483.515 444.429 484.815 444.929 C 485.215 445.079 485.605 445.239 485.995 445.389 C 486.245 445.499 486.485 445.589 486.725 445.689 C 487.195 445.879 487.675 446.059 488.135 446.249 C 488.605 446.429 489.065 446.619 489.525 446.819 C 489.975 446.999 490.435 447.189 490.875 447.379 C 491.325 447.559 491.765 447.749 492.205 447.949 C 492.575 448.099 492.935 448.259 493.285 448.419 C 493.995 448.729 494.705 449.039 495.395 449.359 C 495.735 449.519 496.075 449.669 496.415 449.829 L 497.195 450.189 C 497.305 450.249 497.415 450.299 497.525 450.349 C 497.775 450.469 498.035 450.599 498.285 450.719 C 498.865 450.989 499.435 451.279 499.995 451.549 C 500.745 451.929 501.475 452.309 502.175 452.679 C 502.885 453.059 503.575 453.439 504.235 453.809 C 504.345 453.869 504.445 453.929 504.555 453.989 C 504.705 454.069 504.855 454.159 505.005 454.239 C 505.515 454.529 506.005 454.829 506.495 455.119 C 507.455 455.709 508.365 456.289 509.215 456.869 C 509.405 456.999 509.585 457.129 509.775 457.249 C 510.405 457.699 511.005 458.139 511.565 458.589 C 511.565 458.599 511.565 458.599 511.575 458.599 C 511.765 458.739 511.945 458.889 512.125 459.029 C 512.275 459.169 512.435 459.289 512.585 459.429 C 513.105 459.879 513.585 460.309 514.025 460.749 C 514.172 460.885 514.313 461.029 514.445 461.179 C 514.503 461.228 514.557 461.281 514.605 461.339 C 514.805 461.539 514.985 461.739 515.155 461.939 C 515.181 461.967 515.205 461.997 515.225 462.029 C 515.465 462.309 515.685 462.589 515.895 462.869 C 515.995 463.009 516.105 463.149 516.195 463.289 C 516.315 463.459 516.435 463.639 516.535 463.809 C 516.625 463.949 516.705 464.099 516.785 464.239 C 516.997 464.6 517.178 464.978 517.325 465.369 C 517.437 465.635 517.528 465.909 517.595 466.189 C 517.671 466.455 517.728 466.726 517.765 466.999 Z" fill="#2f2e41"/>
  <path d="M 517.765 466.999 C 517.755 468.749 517.735 471.199 517.655 474.229 C 517.645 474.649 517.625 475.079 517.615 475.519 C 517.515 479.769 517.365 485.019 517.155 490.949 C 517.145 491.309 517.135 491.659 517.115 492.019 C 516.835 499.259 516.395 507.689 515.635 521.039 C 514.225 545.699 511.765 524.429 509.295 533.079 C 502.435 528.859 494.915 524.439 486.875 519.899 C 485.425 519.079 483.962 518.256 482.485 517.429 C 466.405 508.459 448.445 499.059 429.695 489.749 C 428.955 489.379 428.205 489.009 427.465 488.649 C 384.515 467.419 337.635 446.769 299.655 432.989 C 292.325 430.329 285.325 427.929 278.745 425.819 C 264.885 421.389 252.905 418.289 243.685 416.949 C 234.085 415.549 227.455 416.049 224.775 418.939 C 224.675 416.899 224.572 414.946 224.465 413.079 C 224.425 412.459 224.385 411.849 224.345 411.249 C 224.407 411.085 224.487 410.928 224.565 410.769 C 224.576 410.746 224.584 410.722 224.595 410.699 C 224.614 410.648 224.638 410.597 224.665 410.549 C 224.695 410.487 224.728 410.427 224.765 410.369 C 224.798 410.299 224.838 410.231 224.885 410.169 C 224.975 410.029 225.075 409.879 225.185 409.739 C 225.266 409.635 225.353 409.534 225.445 409.439 C 225.476 409.391 225.513 409.348 225.555 409.309 C 225.595 409.269 225.635 409.219 225.685 409.169 C 225.706 409.138 225.734 409.111 225.765 409.089 C 225.844 408.999 225.931 408.915 226.025 408.839 C 226.382 408.511 226.763 408.21 227.165 407.939 C 227.305 407.849 227.455 407.759 227.595 407.659 C 228.603 407.057 229.664 406.548 230.765 406.139 C 231.145 405.999 231.525 405.869 231.935 405.729 C 232.085 405.689 232.225 405.639 232.375 405.589 C 232.595 405.519 232.815 405.449 233.045 405.399 C 234.185 405.059 235.415 404.769 236.745 404.499 C 237.145 404.419 237.565 404.339 237.985 404.269 C 238.325 404.209 238.675 404.149 239.025 404.089 C 241.995 403.619 245.365 403.269 249.085 403.039 C 249.435 403.019 249.785 402.999 250.135 402.979 C 250.545 402.959 250.955 402.939 251.375 402.919 C 251.725 402.899 252.085 402.889 252.445 402.879 C 252.795 402.859 253.155 402.849 253.525 402.839 C 254.535 402.809 255.575 402.779 256.635 402.759 C 259.655 402.709 262.835 402.729 266.175 402.799 C 267.725 402.829 269.305 402.879 270.925 402.949 C 271.025 402.949 271.135 402.959 271.235 402.959 C 272.645 402.999 274.075 403.069 275.525 403.139 C 276.545 403.189 277.575 403.239 278.605 403.299 C 279.575 403.359 280.555 403.419 281.545 403.489 C 282.315 403.529 283.085 403.589 283.865 403.639 C 284.525 403.689 285.185 403.739 285.845 403.779 C 286.635 403.839 287.425 403.899 288.225 403.959 C 289.325 404.049 290.425 404.139 291.545 404.229 C 292.655 404.329 293.785 404.429 294.915 404.529 C 296.045 404.629 297.185 404.739 298.325 404.849 C 298.445 404.859 298.555 404.869 298.665 404.879 C 299.705 404.989 300.745 405.089 301.795 405.199 C 307.615 405.789 313.605 406.479 319.765 407.269 C 323.445 407.739 327.172 408.243 330.945 408.779 C 336.675 409.589 342.495 410.469 348.355 411.409 C 354.225 412.359 360.128 413.363 366.065 414.419 C 367.565 414.689 369.065 414.959 370.575 415.239 C 372.415 415.579 374.255 415.926 376.095 416.279 C 377.255 416.499 378.415 416.719 379.575 416.949 C 380.955 417.219 382.345 417.489 383.725 417.759 C 392.815 419.559 401.855 421.479 410.675 423.489 C 412.125 423.819 413.575 424.159 415.015 424.489 C 417.895 425.159 420.748 425.839 423.575 426.529 C 424.355 426.719 425.125 426.909 425.895 427.099 C 427.825 427.579 429.735 428.059 431.625 428.539 L 431.625 428.549 C 431.735 428.569 431.845 428.599 431.955 428.629 C 433.335 428.979 434.705 429.329 436.065 429.689 C 439.275 430.529 442.432 431.376 445.535 432.229 C 447.595 432.809 449.635 433.379 451.645 433.959 C 454.655 434.839 457.605 435.719 460.475 436.599 C 461.185 436.819 461.895 437.039 462.595 437.249 C 464.695 437.909 466.755 438.566 468.775 439.219 C 470.375 439.739 471.935 440.269 473.475 440.799 C 475.015 441.329 476.525 441.859 478.005 442.389 C 478.965 442.729 479.905 443.079 480.835 443.419 C 482.195 443.919 483.515 444.419 484.815 444.929 C 485.215 445.079 485.605 445.239 485.995 445.389 C 486.725 445.669 487.435 445.959 488.135 446.249 C 488.605 446.429 489.065 446.619 489.525 446.819 C 489.975 446.999 490.435 447.189 490.875 447.379 C 491.325 447.559 491.765 447.749 492.205 447.949 C 492.575 448.099 492.935 448.259 493.285 448.419 C 493.995 448.729 494.705 449.039 495.395 449.359 C 495.735 449.519 496.075 449.669 496.415 449.829 L 497.195 450.189 C 497.305 450.249 497.415 450.299 497.525 450.349 C 498.375 450.749 499.195 451.149 499.995 451.549 C 500.745 451.929 501.475 452.309 502.175 452.679 C 503.005 453.119 503.795 453.549 504.555 453.989 C 504.705 454.069 504.855 454.159 505.005 454.239 C 505.515 454.529 506.005 454.829 506.495 455.119 C 507.455 455.709 508.365 456.289 509.215 456.869 C 510.055 457.449 510.835 458.019 511.565 458.589 C 511.565 458.599 511.565 458.599 511.575 458.599 C 511.925 458.879 512.265 459.159 512.585 459.429 C 513.105 459.879 513.585 460.309 514.025 460.749 C 514.173 460.885 514.313 461.029 514.445 461.179 C 514.503 461.228 514.557 461.281 514.605 461.339 C 514.815 461.569 515.025 461.799 515.225 462.029 C 515.465 462.309 515.685 462.589 515.895 462.869 C 515.995 463.009 516.105 463.149 516.195 463.289 C 516.315 463.459 516.435 463.639 516.535 463.809 C 516.625 463.949 516.705 464.099 516.785 464.239 C 516.997 464.6 517.178 464.978 517.325 465.369 C 517.434 465.636 517.525 465.91 517.595 466.189 C 517.671 466.455 517.728 466.726 517.765 466.999 Z" opacity="0.2"/>
</svg>